<?xml version="1.0" encoding="UTF-8"?>
<svg version="1.1" xmlns="http://www.w3.org/2000/svg" width="500" height="500">
<path d="M0 0 C165 0 330 0 500 0 C500 165 500 330 500 500 C335 500 170 500 0 500 C0 335 0 170 0 0 Z " fill="#373643" transform="translate(0,0)"/>
<path d="M0 0 C0.99 0.66 1.98 1.32 3 2 C2.67 3.32 2.34 4.64 2 6 C-1.05263664 6.98120464 -2.94736336 6.98120464 -6 6 C-6.33 6.99 -6.66 7.98 -7 9 C-6.236875 9 -5.47375 9 -4.6875 9 C-2.79166667 9 -0.89583333 9 1 9 C2.33981486 8.6937566 3.67511887 8.36548445 5 8 C8.80083844 13.79021346 11.99599866 19.76190359 15 26 C18.50421386 21.68630209 20.72072403 16.75406958 23.18359375 11.80078125 C25 9 25 9 27.09765625 7.98046875 C29 8 29 8 31 10 C30.66264665 14.39391724 28.6621444 18.08067396 26.69140625 21.9453125 C26.36462387 22.59700409 26.03784149 23.24869568 25.70115662 23.9201355 C25.01215841 25.29143412 24.32029326 26.6612956 23.62573242 28.02978516 C22.56390174 30.12223772 21.51070563 32.2188571 20.45898438 34.31640625 C19.78695668 35.65129267 19.11444701 36.98593658 18.44140625 38.3203125 C18.12675919 38.94535675 17.81211212 39.570401 17.4879303 40.21438599 C16.1090563 42.92751915 14.69129004 45.46306495 13 48 C10.375 48.1875 10.375 48.1875 8 48 C7.13666261 45.58694517 6.79677658 44.46263766 7.84765625 42.0703125 C8.65594703 40.77600765 9.46843899 39.48431674 10.28515625 38.1953125 C11.51498225 34.41846982 9.78045844 31.56752568 8.07739258 28.14697266 C7.03530683 26.16628831 5.96255522 24.20606221 4.875 22.25 C1 15.26427336 1 15.26427336 1 13 C0.01 13.66 -0.98 14.32 -2 15 C-3.65 15 -5.3 15 -7 15 C-7 22.26 -7 29.52 -7 37 C-9.97 37.495 -9.97 37.495 -13 38 C-14 37 -14 37 -14.11352539 34.77514648 C-14.10828857 33.81680908 -14.10305176 32.85847168 -14.09765625 31.87109375 C-14.09443359 30.83662109 -14.09121094 29.80214844 -14.08789062 28.73632812 C-14.07951172 27.64771484 -14.07113281 26.55910156 -14.0625 25.4375 C-14.05798828 24.34501953 -14.05347656 23.25253906 -14.04882812 22.12695312 C-14.03699826 19.41791505 -14.02051543 16.70898401 -14 14 C-15.32 14 -16.64 14 -18 14 C-17.98952637 14.65597168 -17.97905273 15.31194336 -17.96826172 15.98779297 C-17.92677497 18.95015658 -17.90069738 21.91245916 -17.875 24.875 C-17.85824219 25.90753906 -17.84148437 26.94007813 -17.82421875 28.00390625 C-17.81777344 28.99003906 -17.81132812 29.97617188 -17.8046875 30.9921875 C-17.79421387 31.90339355 -17.78374023 32.81459961 -17.77294922 33.75341797 C-18 36 -18 36 -20 38 C-21.65 37.67 -23.3 37.34 -25 37 C-25 27.76 -25 18.52 -25 9 C-20 8 -20 8 -17 9 C-16.01 9 -15.02 9 -14 9 C-13.9175 8.071875 -13.835 7.14375 -13.75 6.1875 C-13 3 -13 3 -11.5 1.125 C-7.76652295 -0.55506467 -4.0331289 -0.57191699 0 0 Z " fill="#F1F1F2" transform="translate(310,222)"/>
<path d="M0 0 C1.98 0 3.96 0 6 0 C6 9.24 6 18.48 6 28 C1 29 1 29 -2 28 C-2.66 28.33 -3.32 28.66 -4 29 C-9.10697902 29.58413159 -14.31065255 30.16675286 -18.5625 26.875 C-22.6768168 22.02221608 -23.47311287 17.3918104 -23.31640625 11.17578125 C-22.65236602 6.60947991 -19.82295351 3.89349238 -16.8125 0.625 C-11.50564031 -2.4411856 -5.78117647 -1.2499841 0 0 Z " fill="#F8F8F8" transform="translate(253,231)"/>
<path d="M0 0 C1.83976025 1.2445437 3.300765 2.46234184 4.7265625 4.16796875 C4.4140625 6.35546875 4.4140625 6.35546875 3.7265625 8.16796875 C-0.00831527 7.66998505 -2.08581385 7.29305119 -5.2734375 5.16796875 C-8.99163666 4.62117476 -12.55537534 4.61895665 -16.2734375 5.16796875 C-19.17027618 7.36956615 -20.66640981 8.95391337 -22.2734375 12.16796875 C-22.86159909 16.9889654 -22.71934013 20.33561718 -20.3984375 24.66796875 C-18.18289263 27.27449213 -17.43170977 28.04089212 -14.1015625 28.40625 C-8.14789977 28.57764332 -5.09702084 27.95792709 -0.2734375 24.16796875 C2.1015625 23.41796875 2.1015625 23.41796875 3.7265625 23.16796875 C4.3865625 24.48796875 5.0465625 25.80796875 5.7265625 27.16796875 C2.78870136 31.51600324 -0.15092384 34.0158463 -5.2734375 35.16796875 C-11.20345073 35.77427933 -16.38277974 36.06354348 -21.8359375 33.48046875 C-27.08060597 28.50475764 -30.27120366 24.18637967 -30.6484375 16.85546875 C-30.49882908 11.23580242 -28.67802669 6.76360749 -24.84765625 2.62890625 C-17.22275822 -4.10937573 -8.80819049 -4.73032452 0 0 Z " fill="#F3F3F4" transform="translate(188.2734375,224.83203125)"/>
<path d="M0 0 C2.625 0.375 2.625 0.375 5 1 C5.33 3.97 5.66 6.94 6 10 C6.99 9.34 7.98 8.68 9 8 C13.91508428 7.27246601 17.93308607 7.49564069 22.4375 9.625 C26.46747357 13.36009746 28.1425076 16.99430912 28.36328125 22.453125 C28.36196624 24.05217239 28.34473232 25.65127696 28.3125 27.25 C28.31733398 28.47203125 28.31733398 28.47203125 28.32226562 29.71875 C28.2675047 35.7324953 28.2675047 35.7324953 26 38 C23.375 37.625 23.375 37.625 21 37 C20.98541748 36.44014404 20.97083496 35.88028809 20.95581055 35.3034668 C20.88128648 32.76411863 20.78464419 30.22607922 20.6875 27.6875 C20.66494141 26.80642578 20.64238281 25.92535156 20.61914062 25.01757812 C20.5659668 23.74624023 20.5659668 23.74624023 20.51171875 22.44921875 C20.48553467 21.66893311 20.45935059 20.88864746 20.43237305 20.0847168 C19.89256862 17.4820121 19.11744695 16.57679605 17 15 C13.54250051 14.33323122 13.54250051 14.33323122 10 15 C6.89201436 17.82899231 5.76132174 20.11348653 5.390625 24.20703125 C5.32476838 25.7414904 5.27831805 27.27688935 5.25 28.8125 C5.22035156 29.60076172 5.19070312 30.38902344 5.16015625 31.20117188 C5.08988707 33.13357446 5.04262866 35.06679015 5 37 C2.625 37.625 2.625 37.625 0 38 C-2.48850674 35.51149326 -2.2461233 34.0378994 -2.27789307 30.64086914 C-2.2738446 29.91375732 -2.26979614 29.18664551 -2.265625 28.4375 C-2.26753845 27.69040771 -2.2694519 26.94331543 -2.27142334 26.17358398 C-2.27278498 24.59325829 -2.26909 23.01292142 -2.26074219 21.43261719 C-2.250042 19.00951078 -2.26063779 16.58714577 -2.2734375 14.1640625 C-2.2721159 12.63020669 -2.2695535 11.09635135 -2.265625 9.5625 C-2.26967346 8.83538818 -2.27372192 8.10827637 -2.27789307 7.35913086 C-2.22992361 2.22992361 -2.22992361 2.22992361 0 0 Z " fill="#F3F3F4" transform="translate(198,222)"/>
<path d="M0 0 C7.88238399 0.01885738 15.6663793 0.41340537 23.515625 1.1328125 C23.7758396 20.93803476 23.7758396 20.93803476 22.515625 26.1328125 C19.515625 28.1328125 19.515625 28.1328125 16.890625 27.8203125 C14.515625 27.1328125 14.515625 27.1328125 13.515625 26.1328125 C13.3828125 24.34765625 13.3828125 24.34765625 13.390625 22.0703125 C13.38675781 20.97009766 13.38675781 20.97009766 13.3828125 19.84765625 C13.55924119 16.24124633 14.03841062 12.71192036 14.515625 9.1328125 C13.31164062 9.16761719 12.10765625 9.20242187 10.8671875 9.23828125 C9.29168058 9.2664153 7.71615862 9.29371587 6.140625 9.3203125 C5.3465625 9.34544922 4.5525 9.37058594 3.734375 9.39648438 C1.65976352 9.42285655 -0.41538365 9.28767712 -2.484375 9.1328125 C-4.484375 6.1328125 -4.484375 6.1328125 -4.171875 3.5078125 C-3.20606954 0.17139365 -3.20606954 0.17139365 0 0 Z " fill="#19C693" transform="translate(375.484375,206.8671875)"/>
<path d="M0 0 C1.12148438 0.04833984 2.24296875 0.09667969 3.3984375 0.14648438 C5.161875 0.2305957 5.161875 0.2305957 6.9609375 0.31640625 C8.14429688 0.36861328 9.32765625 0.42082031 10.546875 0.47460938 C13.47681311 0.60456631 16.40643423 0.73954153 19.3359375 0.87890625 C19.22645644 5.00447315 19.09573525 9.12909503 18.9609375 13.25390625 C18.91453125 15.01734375 18.91453125 15.01734375 18.8671875 16.81640625 C18.82851563 17.93789062 18.78984375 19.059375 18.75 20.21484375 C18.7185791 21.2517334 18.6871582 22.28862305 18.65478516 23.35693359 C18.3359375 25.87890625 18.3359375 25.87890625 16.3359375 27.87890625 C13.2734375 28.06640625 13.2734375 28.06640625 10.3359375 27.87890625 C9.3359375 26.87890625 9.3359375 26.87890625 9.203125 25.12890625 C9.22218766 19.6388608 9.64423954 14.32602767 10.3359375 8.87890625 C9.13195312 8.90210938 7.92796875 8.9253125 6.6875 8.94921875 C5.11198535 8.96797488 3.53646402 8.98617524 1.9609375 9.00390625 C1.166875 9.02066406 0.3728125 9.03742188 -0.4453125 9.0546875 C-2.51898265 9.07226098 -4.59289491 8.98225793 -6.6640625 8.87890625 C-7.3240625 8.21890625 -7.9840625 7.55890625 -8.6640625 6.87890625 C-8.4140625 3.81640625 -8.4140625 3.81640625 -7.6640625 0.87890625 C-4.96635992 -0.46994504 -3.01132875 -0.13687858 0 0 Z " fill="#19C693" transform="translate(365.6640625,220.12109375)"/>
<path d="M0 0 C3.53571429 0.53571429 3.53571429 0.53571429 5 2 C5.04080783 3.99958364 5.04254356 6.00045254 5 8 C6.98 8 8.96 8 11 8 C11.38218767 9.65614657 11.71395102 11.32457024 12 13 C11.67 13.33 11.34 13.66 11 14 C9.02 14 7.04 14 5 14 C5.33 20.27 5.66 26.54 6 33 C9.465 32.505 9.465 32.505 13 32 C13.33 33.65 13.66 35.3 14 37 C10.4913604 39.33909307 9.12910567 39.41291057 5 39 C1.20138235 37.27335561 -0.45306099 35.83571544 -2 32 C-2.22705078 29.89355469 -2.22705078 29.89355469 -2.1953125 27.671875 C-2.18564453 26.47304687 -2.18564453 26.47304687 -2.17578125 25.25 C-2.15902344 24.425 -2.14226562 23.6 -2.125 22.75 C-2.11597656 21.90953125 -2.10695313 21.0690625 -2.09765625 20.203125 C-2.07415817 18.13529396 -2.03828908 16.06761005 -2 14 C-3.65 13.67 -5.3 13.34 -7 13 C-6.67 11.35 -6.34 9.7 -6 8 C-4.68 8 -3.36 8 -2 8 C-2.04125 7.05125 -2.0825 6.1025 -2.125 5.125 C-2 2 -2 2 0 0 Z " fill="#F2F2F3" transform="translate(269,222)"/>
<path d="M0 0 C4.29824781 0.67867071 5.89338511 1.08456242 8.5625 4.5625 C9.20188281 8.30905892 9.38620515 11.84162501 8.5625 15.5625 C6.60066405 17.56305639 5.27669138 18.4226775 2.52734375 18.9609375 C-2.96554487 18.8974359 -2.96554487 18.8974359 -5.375 17.1875 C-7.81815589 13.45090863 -8.02166871 9.92707476 -7.4375 5.5625 C-5.38426876 1.62029601 -4.41371226 0.72224382 0 0 Z " fill="#3C3B48" transform="translate(244.4375,235.4375)"/>
<path d="M0 0 C5.625 -0.25 5.625 -0.25 9 2 C9.66 1.34 10.32 0.68 11 0 C17.05240175 -0.55021834 17.05240175 -0.55021834 19.9375 1.125 C21.50422245 3.88980433 21.38976435 5.88188517 21 9 C19.875 10.875 19.875 10.875 18 12 C15 12.375 15 12.375 12 12 C10.125 10.5 10.125 10.5 9 9 C8.62875 9.495 8.2575 9.99 7.875 10.5 C6 12 6 12 2.9375 12.375 C1.968125 12.25125 0.99875 12.1275 0 12 C-0.66 11.01 -1.32 10.02 -2 9 C0.31 9.33 2.62 9.66 5 10 C5 9.34 5 8.68 5 8 C3.02 7.01 1.04 6.02 -1 5 C-0.67 3.35 -0.34 1.7 0 0 Z " fill="#5D5C66" transform="translate(234,289)"/>
<path d="M0 0 C0 9.24 0 18.48 0 28 C-1.65 28.33 -3.3 28.66 -5 29 C-6 28 -6 28 -6.11352539 25.31616211 C-6.10828857 24.14835205 -6.10305176 22.98054199 -6.09765625 21.77734375 C-6.09443359 20.51728516 -6.09121094 19.25722656 -6.08789062 17.95898438 C-6.07953403 16.61848891 -6.07106907 15.27799412 -6.0625 13.9375 C-6.0574866 12.59310058 -6.05292342 11.2486994 -6.04882812 9.90429688 C-6.03699488 6.60282059 -6.02050971 3.30143197 -6 0 C-4 -1 -4 -1 0 0 Z " fill="#FBFBFB" transform="translate(291,231)"/>
<path d="M0 0 C0.66 0 1.32 0 2 0 C2 5.61 2 11.22 2 17 C1.34 17 0.68 17 0 17 C-0.33 16.01 -0.66 15.02 -1 14 C-1.37125 14.495 -1.7425 14.99 -2.125 15.5 C-4 17 -4 17 -7 17.375 C-10 17 -10 17 -11.875 15.875 C-13.51151479 13.14747535 -13.32502803 11.12026907 -13 8 C-12.34 7.01 -11.68 6.02 -11 5 C-4.875 4.5625 -4.875 4.5625 -2 6 C-2 6.66 -2 7.32 -2 8 C-1.34 8 -0.68 8 0 8 C0 5.36 0 2.72 0 0 Z " fill="#72717A" transform="translate(292,284)"/>
<path d="M0 0 C5.41538462 -0.36923077 5.41538462 -0.36923077 8.375 1.5 C8.91125 1.995 9.4475 2.49 10 3 C10.33 2.01 10.66 1.02 11 0 C17.460199 -0.36567164 17.460199 -0.36567164 19.9375 1.3125 C21 3 21 3 21 6 C17.37 6 13.74 6 10 6 C10.33 7.32 10.66 8.64 11 10 C13.64 10 16.28 10 19 10 C18.67 10.66 18.34 11.32 18 12 C12.25 12.125 12.25 12.125 10 11 C10 10.34 10 9.68 10 9 C9.46375 9.495 8.9275 9.99 8.375 10.5 C5.34860502 12.41140736 3.51843231 12.45892595 0 12 C-0.66 11.01 -1.32 10.02 -2 9 C0.31 9.33 2.62 9.66 5 10 C5 9.34 5 8.68 5 8 C3.02 7.01 1.04 6.02 -1 5 C-0.67 3.35 -0.34 1.7 0 0 Z " fill="#807F88" transform="translate(311,289)"/>
<path d="M0 0 C0.90492188 0.02320313 1.80984375 0.04640625 2.7421875 0.0703125 C5.1553125 0.1321875 5.1553125 0.1321875 7.6171875 0.1953125 C7.6171875 4.1553125 7.6171875 8.1153125 7.6171875 12.1953125 C0.09765625 12.5859375 0.09765625 12.5859375 -2.3828125 12.1953125 C-4.21875 10.375 -4.21875 10.375 -5.3828125 8.1953125 C-5.12690893 3.93025303 -4.90200045 0.40180332 0 0 Z " fill="#393844" transform="translate(195.3828125,288.8046875)"/>
<path d="M0 0 C1.875 1.125 1.875 1.125 3 3 C3.39365568 6.14924548 3.52854531 8.11909116 1.875 10.875 C-0.88090884 12.52854531 -2.85075452 12.39365568 -6 12 C-7.875 10.875 -7.875 10.875 -9 9 C-9.39365568 5.85075452 -9.52854531 3.88090884 -7.875 1.125 C-5.11909116 -0.52854531 -3.14924548 -0.39365568 0 0 Z " fill="#6D6C76" transform="translate(305,289)"/>
<path d="M0 0 C2 2 2 2 2.265625 3.875 C2.26046875 4.57625 2.2553125 5.2775 2.25 6 C2.25515625 6.70125 2.2603125 7.4025 2.265625 8.125 C2 10 2 10 0 12 C-3.5 12.3125 -3.5 12.3125 -7 12 C-9.46943529 8.29584707 -9.46913089 6.37855495 -9 2 C-6.17266771 -1.35091234 -4.03066587 -1.37891201 0 0 Z " fill="#B0B0B5" transform="translate(223,289)"/>
<path d="M0 0 C5.625 -0.25 5.625 -0.25 9 2 C9.66 1.34 10.32 0.68 11 0 C14.625 -0.125 14.625 -0.125 18 0 C18 0.33 18 0.66 18 1 C15.69 1.66 13.38 2.32 11 3 C10.9175 3.928125 10.835 4.85625 10.75 5.8125 C10 9 10 9 8.3125 10.875 C5.32201536 12.32983036 3.28393746 12.42833967 0 12 C-0.66 11.01 -1.32 10.02 -2 9 C0.31 9.33 2.62 9.66 5 10 C5 9.34 5 8.68 5 8 C3.02 7.01 1.04 6.02 -1 5 C-0.67 3.35 -0.34 1.7 0 0 Z " fill="#929198" transform="translate(234,289)"/>
<path d="M0 0 C6.02908277 -0.65771812 6.02908277 -0.65771812 8.9375 1.3125 C10 3 10 3 10 6 C6.37 6 2.74 6 -1 6 C-0.67 7.32 -0.34 8.64 0 10 C2.64 10 5.28 10 8 10 C7.67 10.66 7.34 11.32 7 12 C1.6 12.36 1.6 12.36 -0.875 10.875 C-2.51151479 8.14747535 -2.32502803 6.12026907 -2 3 C-1.34 2.01 -0.68 1.02 0 0 Z " fill="#C1C0C4" transform="translate(322,289)"/>
<path d="M0 0 C3.43837533 0.68517356 3.43837533 0.68517356 6.3125 -0.0625 C8.5625 -0.5 8.5625 -0.5 11.5625 1.5 C11.85546875 4.1015625 11.85546875 4.1015625 11.75 7.125 C11.72292969 8.12789063 11.69585937 9.13078125 11.66796875 10.1640625 C11.63316406 10.93492187 11.59835938 11.70578125 11.5625 12.5 C11.2325 12.5 10.9025 12.5 10.5625 12.5 C10.0675 7.55 10.0675 7.55 9.5625 2.5 C7.9125 2.5 6.2625 2.5 4.5625 2.5 C2.97977399 4.08272601 3.21514253 5.88034003 3 8.0625 C2.91621094 8.88878906 2.83242187 9.71507812 2.74609375 10.56640625 C2.68550781 11.20449219 2.62492188 11.84257812 2.5625 12.5 C2.2325 12.5 1.9025 12.5 1.5625 12.5 C1.2325 8.87 0.9025 5.24 0.5625 1.5 C-1.4175 2.16 -3.3975 2.82 -5.4375 3.5 C-5.7675 6.47 -6.0975 9.44 -6.4375 12.5 C-6.7675 12.5 -7.0975 12.5 -7.4375 12.5 C-7.4375 8.54 -7.4375 4.58 -7.4375 0.5 C-3.4375 -0.5 -3.4375 -0.5 0 0 Z " fill="#C6C5C9" transform="translate(176.4375,288.5)"/>
<path d="M0 0 C0.90492188 0.02320313 1.80984375 0.04640625 2.7421875 0.0703125 C5.1553125 0.1321875 5.1553125 0.1321875 7.6171875 0.1953125 C7.6171875 4.1553125 7.6171875 8.1153125 7.6171875 12.1953125 C0.09765625 12.5859375 0.09765625 12.5859375 -2.3828125 12.1953125 C-4.21875 10.375 -4.21875 10.375 -5.3828125 8.1953125 C-5.12690893 3.93025303 -4.90200045 0.40180332 0 0 Z M-3.3828125 3.1953125 C-3.71614583 6.1953125 -3.71614583 6.1953125 -3.3828125 9.1953125 C-1.55578023 11.4445033 -1.55578023 11.4445033 1.1171875 11.4453125 C3.79015523 11.4445033 3.79015523 11.4445033 5.6171875 9.1953125 C5.95052083 6.1953125 5.95052083 6.1953125 5.6171875 3.1953125 C3.79015523 0.9461217 3.79015523 0.9461217 1.1171875 0.9453125 C-1.55578023 0.9461217 -1.55578023 0.9461217 -3.3828125 3.1953125 Z " fill="#C2C2C6" transform="translate(195.3828125,288.8046875)"/>
<path d="M0 0 C0.66 0 1.32 0 2 0 C2.33 2.64 2.66 5.28 3 8 C4.32 7.01 5.64 6.02 7 5 C6.67 5.5775 6.34 6.155 6 6.75 C4.72924102 9.19883862 4.72924102 9.19883862 5 13 C6.41977909 15.22743787 6.41977909 15.22743787 8 17 C4.125 15.125 4.125 15.125 3 14 C2.67 14.99 2.34 15.98 2 17 C1.34 17 0.68 17 0 17 C0 11.39 0 5.78 0 0 Z " fill="#B3B3B8" transform="translate(205,284)"/>
<path d="M0 0 C0.33 0 0.66 0 1 0 C1.33 2.97 1.66 5.94 2 9 C3.65614657 9.38218767 5.32457024 9.71395102 7 10 C8.58272601 8.41727399 8.34735747 6.61965997 8.5625 4.4375 C8.64628906 3.61121094 8.73007812 2.78492188 8.81640625 1.93359375 C8.87699219 1.29550781 8.93757813 0.65742188 9 0 C9.66 0 10.32 0 11 0 C11 3.96 11 7.92 11 12 C4.1640625 12.1953125 4.1640625 12.1953125 2 12 C0 10 0 10 -0.1953125 7.6171875 C-0.17210937 6.71226562 -0.14890625 5.80734375 -0.125 4.875 C-0.10695313 3.96492188 -0.08890625 3.05484375 -0.0703125 2.1171875 C-0.04710937 1.41851562 -0.02390625 0.71984375 0 0 Z " fill="#C0C0C4" transform="translate(257,289)"/>
<path d="M0 0 C2.97 0 5.94 0 9 0 C9 1.32 9 2.64 9 4 C8 5 8 5 4.4375 5.0625 C3.303125 5.041875 2.16875 5.02125 1 5 C0.67 3.35 0.34 1.7 0 0 Z " fill="#6B6B74" transform="translate(215,296)"/>
<path d="M0 0 C3.63 0 7.26 0 11 0 C11 1.32 11 2.64 11 4 C3.52908757 5.34721372 3.52908757 5.34721372 1 3.6875 C0 2 0 2 0 0 Z " fill="#55545F" transform="translate(321,295)"/>
<path d="M0 0 C0.5775 0.61875 1.155 1.2375 1.75 1.875 C3.80249821 3.81347053 5.43366582 4.90014249 8 6 C7.67 6.99 7.34 7.98 7 9 C3.62537285 8.45276317 1.91765 7.9451 -1 6 C-0.67 4.02 -0.34 2.04 0 0 Z " fill="#3D3C49" transform="translate(309,291)"/>
<path d="M0 0 C1.67542976 0.28604898 3.34385343 0.61781233 5 1 C5 2.65 5 4.3 5 6 C3.34385343 6.38218767 1.67542976 6.71395102 0 7 C-1 6 -1 6 -1.125 3.5 C-1 1 -1 1 0 0 Z " fill="#EBEBEC" transform="translate(286,222)"/>
<path d="M0 0 C1.98 0 3.96 0 6 0 C6.33 1.32 6.66 2.64 7 4 C4.03 4 1.06 4 -2 4 C-1.34 2.68 -0.68 1.36 0 0 Z " fill="#3C3B48" transform="translate(323,290)"/>
<path d="M0 0 C1.65 0 3.3 0 5 0 C5.66 1.32 6.32 2.64 7 4 C4.03 4 1.06 4 -2 4 C-1.34 2.68 -0.68 1.36 0 0 Z " fill="#383744" transform="translate(217,290)"/>
<path d="M0 0 C2.38564077 0.57584432 4.66682784 1.22227595 7 2 C6.67 3.32 6.34 4.64 6 6 C3.69 5.34 1.38 4.68 -1 4 C-0.67 2.68 -0.34 1.36 0 0 Z " fill="#474652" transform="translate(304,227)"/>
<path d="M0 0 C0.66 0 1.32 0 2 0 C2 3.96 2 7.92 2 12 C0.68 12 -0.64 12 -2 12 C-1.855625 11.30132812 -1.71125 10.60265625 -1.5625 9.8828125 C-1.376875 8.97273438 -1.19125 8.06265625 -1 7.125 C-0.814375 6.22007812 -0.62875 5.31515625 -0.4375 4.3828125 C0.06019595 2.07592097 0.06019595 2.07592097 0 0 Z " fill="#B0AFB5" transform="translate(201,289)"/>
</svg>
